<svg width="48" height="48" viewBox="0 0 48 48" fill="none" xmlns="http://www.w3.org/2000/svg">
<path fill-rule="evenodd" clip-rule="evenodd" d="M19.6315 14.3512C22.5878 15.4336 26.1375 13.1581 27.5609 9.26904C28.9834 5.3799 27.7404 1.3507 24.7845 0.268912C21.8276 -0.812029 18.2783 1.46282 16.855 5.35187C15.4323 9.24101 16.6753 13.2702 19.6315 14.3512ZM8.39832 20.5538C11.4909 20.2857 13.7119 16.7715 13.3604 12.7022C13.0082 8.63426 10.2156 5.55344 7.12303 5.82006C4.03077 6.08903 1.80982 9.60383 2.16167 13.6725C2.51398 17.7404 5.30615 20.8212 8.39832 20.5538ZM41.1946 16.8389C39.0971 20.409 35.197 22.0112 32.4828 20.4159C29.7686 18.8221 29.268 14.6361 31.3654 11.0643C33.4626 7.49417 37.3634 5.89122 40.0776 7.48507C42.7922 9.08033 43.2922 13.2665 41.1946 16.8389ZM47.02 24.6481C45.2602 22.0915 41.1072 21.8938 37.743 24.2081C34.3781 26.5238 33.0778 30.4727 34.8371 33.0301C36.5965 35.5866 40.7499 35.7845 44.1141 33.4694C47.4779 31.1544 48.7789 27.2056 47.02 24.6481ZM24.9149 19.6159C27.1905 20.6901 28.6142 22.8082 28.9498 25.1307C29.1107 26.2431 29.1163 27.2891 29.1215 28.277C29.1284 29.5675 29.1347 30.759 29.4861 31.8701C29.6511 32.3912 30.1367 32.9625 30.7131 33.6407C32.307 35.516 34.5957 38.2087 32.7226 42.9186C30.9212 47.4485 25.3822 49.2134 20.9743 47.1333C19.0734 46.2364 17.7522 45.153 16.6093 44.2159C15.7379 43.5014 14.9702 42.8718 14.1281 42.4747C13.2863 42.0777 12.3127 41.8853 11.2077 41.6671C9.75742 41.3806 8.08087 41.0494 6.17924 40.1521C1.77119 38.0721 -0.387315 32.6739 1.96404 28.4038C4.40901 23.9639 7.94233 24.0184 10.4029 24.0564C11.2929 24.0701 12.0425 24.0817 12.5496 23.8777C13.6314 23.4424 14.5555 22.6896 15.5565 21.8741C16.3223 21.2503 17.133 20.5898 18.0938 20.0067C20.0994 18.7902 22.6397 18.5425 24.9149 19.6159Z" fill="#FF7A1A"/>
</svg>
